# xmcd
#
# Track frame offsets:
#	150
#	33186
#	51742
#	69854
#	95075
#	118297
#	134417
#
# Disc length: 2554 seconds
#
# Revision: 2960248556
# Processed by: cddbd v1.5.2PL0 Copyright (c) Steve Scherf et al.
# Submitted via: EZCDAudioConverter 8.1.0.1
#
DISCID=6709f807
DTITLE=Lucinda Williams - The Ghosts Of Highway 20
DYEAR=2016
DGENRE=Country
TTITLE0=Ghosts Of Highway 20
TTITLE1=Bitter Memory
TTITLE2=Factory
TTITLE3=Can't Close The Door On Love
TTITLE4=If My Love Could Kill
TTITLE5=If There's A Heaven
TTITLE6=Faith And Grace
EXTD=
EXTT0=
EXTT1=
EXTT2=
EXTT3=
EXTT4=
EXTT5=
EXTT6=
PLAYORDER=
